<?xml version="1.0" encoding="UTF-8" standalone="no"?>
<!DOCTYPE svg PUBLIC "-//W3C//DTD SVG 1.1//EN"
 "http://www.w3.org/Graphics/SVG/1.1/DTD/svg11.dtd">
<!-- Generated by graphviz version 2.40.1 (20161225.0304)
 -->
<!-- Title: dependencies Pages: 1 -->
<svg width="735pt" height="284pt"
 viewBox="0.00 0.00 735.00 284.00" xmlns="http://www.w3.org/2000/svg" xmlns:xlink="http://www.w3.org/1999/xlink">
<g id="graph0" class="graph" transform="scale(1 1) rotate(0) translate(4 280)">
<title>dependencies</title>
<polygon fill="#ffffff" stroke="transparent" points="-4,4 -4,-280 731,-280 731,4 -4,4"/>
<text text-anchor="start" x="342.5091" y="-42.4" font-family="sans-serif" font-weight="bold" font-size="14.00" fill="#000000">Legend</text>
<polygon fill="#ffffb3" stroke="transparent" points="129.5,-10 129.5,-30 149.5,-30 149.5,-10 129.5,-10"/>
<text text-anchor="start" x="153.129" y="-15.4" font-family="sans-serif" font-size="14.00" fill="#000000"> &#160;Declarations</text>
<polygon fill="#8dd3c7" stroke="transparent" points="242.5,-10 242.5,-30 262.5,-30 262.5,-10 242.5,-10"/>
<text text-anchor="start" x="266.2251" y="-15.4" font-family="sans-serif" font-size="14.00" fill="#000000"> &#160;Module</text>
<polygon fill="#80b1d3" stroke="transparent" points="328.5,-10 328.5,-30 348.5,-30 348.5,-10 328.5,-10"/>
<text text-anchor="start" x="352.2812" y="-15.4" font-family="sans-serif" font-size="14.00" fill="#000000"> &#160;Bootstrap</text>
<polygon fill="#fdb462" stroke="transparent" points="425.5,-10 425.5,-30 445.5,-30 445.5,-10 425.5,-10"/>
<text text-anchor="start" x="449.1732" y="-15.4" font-family="sans-serif" font-size="14.00" fill="#000000"> &#160;Providers</text>
<polygon fill="#fb8072" stroke="transparent" points="521.5,-10 521.5,-30 541.5,-30 541.5,-10 521.5,-10"/>
<text text-anchor="start" x="545.2258" y="-15.4" font-family="sans-serif" font-size="14.00" fill="#000000"> &#160;Exports</text>
<g id="clust1" class="cluster">
<title>cluster_AppModule</title>
<polygon fill="none" stroke="#000000" stroke-dasharray="1,5" points="8,-70 8,-268 719,-268 719,-70 8,-70"/>
</g>
<g id="clust2" class="cluster">
<title>cluster_AppModule_declarations</title>
<polygon fill="none" stroke="#000000" points="168,-78 168,-130 711,-130 711,-78 168,-78"/>
</g>
<g id="clust7" class="cluster">
<title>cluster_AppModule_imports</title>
<polygon fill="none" stroke="#000000" points="16,-78 16,-130 160,-130 160,-78 16,-78"/>
</g>
<g id="clust9" class="cluster">
<title>cluster_AppModule_bootstrap</title>
<polygon fill="none" stroke="#000000" points="315,-208 315,-260 439,-260 439,-208 315,-208"/>
</g>
<!-- AppComponent -->
<g id="node1" class="node">
<title>AppComponent</title>
<polygon fill="#ffffb3" stroke="#000000" points="702.9399,-122 597.0601,-122 597.0601,-86 702.9399,-86 702.9399,-122"/>
<text text-anchor="middle" x="650" y="-99.8" font-family="Times,serif" font-size="14.00" fill="#000000">AppComponent</text>
</g>
<!-- AppModule -->
<g id="node5" class="node">
<title>AppModule</title>
<polygon fill="#8dd3c7" stroke="#000000" points="418.6571,-187 415.6571,-191 394.6571,-191 391.6571,-187 335.3429,-187 335.3429,-151 418.6571,-151 418.6571,-187"/>
<text text-anchor="middle" x="377" y="-164.8" font-family="Times,serif" font-size="14.00" fill="#000000">AppModule</text>
</g>
<!-- AppComponent&#45;&gt;AppModule -->
<g id="edge1" class="edge">
<title>AppComponent&#45;&gt;AppModule</title>
<path fill="none" stroke="#000000" d="M650,-122.2843C650,-143.3211 650,-175 650,-175 650,-175 428.76,-175 428.76,-175"/>
<polygon fill="#000000" stroke="#000000" points="428.76,-171.5001 418.76,-175 428.76,-178.5001 428.76,-171.5001"/>
</g>
<!-- LoginComponent -->
<g id="node2" class="node">
<title>LoginComponent</title>
<polygon fill="#ffffb3" stroke="#000000" points="579.2758,-122 464.7242,-122 464.7242,-86 579.2758,-86 579.2758,-122"/>
<text text-anchor="middle" x="522" y="-99.8" font-family="Times,serif" font-size="14.00" fill="#000000">LoginComponent</text>
</g>
<!-- LoginComponent&#45;&gt;AppModule -->
<g id="edge2" class="edge">
<title>LoginComponent&#45;&gt;AppModule</title>
<path fill="none" stroke="#000000" d="M522,-122.0225C522,-139.3734 522,-163 522,-163 522,-163 428.94,-163 428.94,-163"/>
<polygon fill="#000000" stroke="#000000" points="428.94,-159.5001 418.94,-163 428.94,-166.5001 428.94,-159.5001"/>
</g>
<!-- UserdetailComponent -->
<g id="node3" class="node">
<title>UserdetailComponent</title>
<polygon fill="#ffffb3" stroke="#000000" points="446.3599,-122 307.6401,-122 307.6401,-86 446.3599,-86 446.3599,-122"/>
<text text-anchor="middle" x="377" y="-99.8" font-family="Times,serif" font-size="14.00" fill="#000000">UserdetailComponent</text>
</g>
<!-- UserdetailComponent&#45;&gt;AppModule -->
<g id="edge3" class="edge">
<title>UserdetailComponent&#45;&gt;AppModule</title>
<path fill="none" stroke="#000000" d="M377,-122.1061C377,-122.1061 377,-140.991 377,-140.991"/>
<polygon fill="#000000" stroke="#000000" points="373.5001,-140.9909 377,-150.991 380.5001,-140.991 373.5001,-140.9909"/>
</g>
<!-- UsersComponent -->
<g id="node4" class="node">
<title>UsersComponent</title>
<polygon fill="#ffffb3" stroke="#000000" points="289.7036,-122 176.2964,-122 176.2964,-86 289.7036,-86 289.7036,-122"/>
<text text-anchor="middle" x="233" y="-99.8" font-family="Times,serif" font-size="14.00" fill="#000000">UsersComponent</text>
</g>
<!-- UsersComponent&#45;&gt;AppModule -->
<g id="edge4" class="edge">
<title>UsersComponent&#45;&gt;AppModule</title>
<path fill="none" stroke="#000000" d="M233,-122.0225C233,-139.3734 233,-163 233,-163 233,-163 324.9621,-163 324.9621,-163"/>
<polygon fill="#000000" stroke="#000000" points="324.9622,-166.5001 334.9621,-163 324.9621,-159.5001 324.9622,-166.5001"/>
</g>
<!-- AppComponent  -->
<g id="node7" class="node">
<title>AppComponent </title>
<polygon fill="#80b1d3" stroke="#000000" points="431.439,-252 322.561,-252 322.561,-216 431.439,-216 431.439,-252"/>
<text text-anchor="middle" x="377" y="-229.8" font-family="Times,serif" font-size="14.00" fill="#000000">AppComponent </text>
</g>
<!-- AppModule&#45;&gt;AppComponent  -->
<g id="edge6" class="edge">
<title>AppModule&#45;&gt;AppComponent </title>
<path fill="none" stroke="#000000" stroke-dasharray="1,5" d="M377,-187.1061C377,-187.1061 377,-205.991 377,-205.991"/>
<polygon fill="#000000" stroke="#000000" points="373.5001,-205.9909 377,-215.991 380.5001,-205.991 373.5001,-205.9909"/>
</g>
<!-- AppRoutingModule -->
<g id="node6" class="node">
<title>AppRoutingModule</title>
<polygon fill="#8dd3c7" stroke="#000000" points="152.2744,-122 149.2744,-126 128.2744,-126 125.2744,-122 23.7256,-122 23.7256,-86 152.2744,-86 152.2744,-122"/>
<text text-anchor="middle" x="88" y="-99.8" font-family="Times,serif" font-size="14.00" fill="#000000">AppRoutingModule</text>
</g>
<!-- AppRoutingModule&#45;&gt;AppModule -->
<g id="edge5" class="edge">
<title>AppRoutingModule&#45;&gt;AppModule</title>
<path fill="none" stroke="#000000" d="M88,-122.2843C88,-143.3211 88,-175 88,-175 88,-175 325.2856,-175 325.2856,-175"/>
<polygon fill="#000000" stroke="#000000" points="325.2856,-178.5001 335.2856,-175 325.2855,-171.5001 325.2856,-178.5001"/>
</g>
</g>
</svg>
